# xmcd
#
# Track frame offsets: 
#        150
#        20995
#        40299
#        55180
#        77547
#        88765
#        105595
#        126893
#        143958
#        157253
#        171450
#        194994
#
# Disc length: 2809 seconds
#
# Revision: 0
# Processed by: cddbd v1.5.2PL0 Copyright (c) Steve Scherf et al.
# Submitted via: ExactAudioCopy v0.95b4
#
DISCID=b30af70c
DTITLE=Mike Scott - Appalachian Sunday Bluegrass
DYEAR=1900
DGENRE=Bluegrass
TTITLE0=Victory In Jesus
TTITLE1=Where The Roses Never Fade
TTITLE2=Swing Low, Sweet Chariot
TTITLE3=Pass Me Not
TTITLE4=Where The Soul Never Dies
TTITLE5=I'll Fly Away
TTITLE6=Precious Memories
TTITLE7=I Saw The Light
TTITLE8=The Old Country Church
TTITLE9=Will The Circle Be Unbroken
TTITLE10=What A Friend We Have In Jesus
TTITLE11=When The Angels Carry Me Home
EXTD=
EXTT0=
EXTT1=
EXTT2=
EXTT3=
EXTT4=
EXTT5=
EXTT6=
EXTT7=
EXTT8=
EXTT9=
EXTT10=
EXTT11=
PLAYORDER=
